<svg width="40" height="40" viewBox="0 0 40 40" fill="none" xmlns="http://www.w3.org/2000/svg">
<path d="M9.93903 13.4968V11.8974C9.93903 6.59779 14.2974 2.30157 19.6738 2.30157C25.0501 2.30157 29.4085 6.59779 29.4085 11.8974V13.4968H32.6534C33.5495 13.4968 34.2759 14.2128 34.2759 15.0961V34.2878C34.2759 35.1711 33.5495 35.8871 32.6534 35.8871H6.69411C5.79806 35.8871 5.07166 35.1711 5.07166 34.2878V15.0961C5.07166 14.2128 5.79806 13.4968 6.69411 13.4968H9.93903ZM31.031 16.6954H8.31657V32.6885H31.031V16.6954ZM18.0513 25.8633C17.0814 25.3102 16.4289 24.2766 16.4289 23.0926C16.4289 21.326 17.8816 19.894 19.6738 19.894C21.4659 19.894 22.9187 21.326 22.9187 23.0926C22.9187 24.2766 22.2661 25.3102 21.2962 25.8633V29.4899H18.0513V25.8633ZM13.1839 13.4968H26.1636V11.8974C26.1636 8.36434 23.258 5.5002 19.6738 5.5002C16.0895 5.5002 13.1839 8.36434 13.1839 11.8974V13.4968Z" fill="black"/>
</svg>
