<svg width="19" height="20" viewBox="0 0 19 20" fill="none" xmlns="http://www.w3.org/2000/svg">
<g clip-path="url(#clip0_1_742)">
<path d="M14.972 10.8077C15.0029 10.5611 15.026 10.3145 15.026 10.0525C15.026 9.79053 15.0029 9.54395 14.972 9.29737L16.5979 8.02595C16.7443 7.91036 16.7829 7.70231 16.6904 7.53279L15.1493 4.86665C15.0799 4.74336 14.9489 4.67401 14.8102 4.67401C14.764 4.67401 14.7178 4.68172 14.6792 4.69713L12.7605 5.46769C12.3598 5.15947 11.9283 4.90518 11.4583 4.71254L11.1655 2.67056C11.1424 2.48562 10.9805 2.34692 10.7879 2.34692H7.70566C7.51302 2.34692 7.35121 2.48562 7.32809 2.67056L7.03528 4.71254C6.56524 4.90518 6.13372 5.16717 5.73303 5.46769L3.81434 4.69713C3.76811 4.68172 3.72187 4.67401 3.67564 4.67401C3.54464 4.67401 3.41365 4.74336 3.3443 4.86665L1.80318 7.53279C1.70301 7.70231 1.74924 7.91036 1.89565 8.02595L3.52153 9.29737C3.4907 9.54395 3.46759 9.79823 3.46759 10.0525C3.46759 10.3068 3.4907 10.5611 3.52153 10.8077L1.89565 12.0791C1.74924 12.1947 1.71071 12.4027 1.80318 12.5722L3.3443 15.2384C3.41365 15.3617 3.54464 15.431 3.68334 15.431C3.72958 15.431 3.77581 15.4233 3.81434 15.4079L5.73303 14.6373C6.13372 14.9456 6.56524 15.1999 7.03528 15.3925L7.32809 17.4345C7.35121 17.6194 7.51302 17.7581 7.70566 17.7581H10.7879C10.9805 17.7581 11.1424 17.6194 11.1655 17.4345L11.4583 15.3925C11.9283 15.1999 12.3598 14.9379 12.7605 14.6373L14.6792 15.4079C14.7255 15.4233 14.7717 15.431 14.8179 15.431C14.9489 15.431 15.0799 15.3617 15.1493 15.2384L16.6904 12.5722C16.7829 12.4027 16.7443 12.1947 16.5979 12.0791L14.972 10.8077ZM13.4463 9.49001C13.4772 9.72888 13.4849 9.8907 13.4849 10.0525C13.4849 10.2143 13.4694 10.3839 13.4463 10.615L13.3385 11.4858L14.0243 12.0251L14.8565 12.6724L14.3171 13.6048L13.3385 13.2118L12.5371 12.8882L11.8436 13.4122C11.5122 13.6587 11.1963 13.8437 10.8804 13.9747L10.0636 14.306L9.94028 15.1767L9.78617 16.217H8.70739L8.56098 15.1767L8.43769 14.306L7.6209 13.9747C7.28956 13.836 6.98134 13.6587 6.67311 13.4276L5.97191 12.8882L5.15511 13.2195L4.1765 13.6125L3.63711 12.6801L4.46932 12.0329L5.15511 11.4935L5.04723 10.6227C5.02412 10.3839 5.00871 10.2066 5.00871 10.0525C5.00871 9.8984 5.02412 9.72118 5.04723 9.49001L5.15511 8.61928L4.46932 8.07988L3.63711 7.43261L4.1765 6.50024L5.15511 6.89322L5.95649 7.21686L6.65 6.69288C6.98134 6.4463 7.29727 6.26136 7.6132 6.13037L8.42999 5.79903L8.55328 4.9283L8.70739 3.88804H9.77847L9.92487 4.9283L10.0482 5.79903L10.865 6.13037C11.1963 6.26907 11.5045 6.4463 11.8127 6.67747L12.514 7.21686L13.3307 6.88552L14.3094 6.49253L14.8487 7.42491L14.0243 8.07988L13.3385 8.61928L13.4463 9.49001ZM9.24678 6.97028C7.54385 6.97028 6.16455 8.34958 6.16455 10.0525C6.16455 11.7555 7.54385 13.1348 9.24678 13.1348C10.9497 13.1348 12.329 11.7555 12.329 10.0525C12.329 8.34958 10.9497 6.97028 9.24678 6.97028ZM9.24678 11.5936C8.39917 11.5936 7.70566 10.9001 7.70566 10.0525C7.70566 9.2049 8.39917 8.5114 9.24678 8.5114C10.0944 8.5114 10.7879 9.2049 10.7879 10.0525C10.7879 10.9001 10.0944 11.5936 9.24678 11.5936Z" fill="white"/>
</g>
<defs>
<clipPath id="clip0_1_742">
<rect width="18.4934" height="18.4934" fill="white" transform="translate(0 0.805359)"/>
</clipPath>
</defs>
</svg>
