<svg width="40" height="39" viewBox="0 0 40 39" fill="none" xmlns="http://www.w3.org/2000/svg">
<path d="M32.6534 35.5752H29.4085V32.3766C29.4085 29.7267 27.2294 27.5787 24.5411 27.5787H14.8064C12.1182 27.5787 9.93901 29.7267 9.93901 32.3766V35.5752H6.69409V32.3766C6.69409 27.9603 10.3261 24.3801 14.8064 24.3801H24.5411C29.0214 24.3801 32.6534 27.9603 32.6534 32.3766V35.5752ZM19.6738 21.1814C14.2974 21.1814 9.93901 16.8852 9.93901 11.5856C9.93901 6.28592 14.2974 1.9897 19.6738 1.9897C25.0501 1.9897 29.4085 6.28592 29.4085 11.5856C29.4085 16.8852 25.0501 21.1814 19.6738 21.1814ZM19.6738 17.9828C23.2579 17.9828 26.1636 15.1187 26.1636 11.5856C26.1636 8.05247 23.2579 5.18832 19.6738 5.18832C16.0895 5.18832 13.1839 8.05247 13.1839 11.5856C13.1839 15.1187 16.0895 17.9828 19.6738 17.9828Z" fill="black"/>
</svg>
